<svg width="201" height="34" viewBox="0 0 201 34" fill="none" xmlns="http://www.w3.org/2000/svg" role="img" aria-labelledby="title">
  <title id="title">Deploy to Azure Gov</title>
  <rect width="201" height="34" rx="4" fill="#0078D4"/>
  <path d="m 24.1781,6.18242 v 0 0 h 7 c 0.6,0 1.2,0.4 1.4,1 l 6.1,18 c 0.3,1 -0.4,2 -1.4,2 h -6.9 v 0 c 0,0 -0.1,0 -0.1,0 v 0 c -0.3,0 -0.6,-0.1 -0.9,-0.3 l -4.6,-3.4 -0.9,2.7 c -0.2,0.6 -0.8,1 -1.4,1 h -4.4 c -1,0 -1.7,-1 -1.4,-2 l 6,-18 c 0.3,-0.6 0.8,-1 1.5,-1 z m -2.6,13.7 8.4,6.2 c 0.1,0.1 0.2,0.1 0.3,0.1 v 0 c 0.3,0 0.6,-0.3 0.5,-0.7 l -3.4,-10 -1.3,3.3 -0.1,0.4 h -0.3 -5 z m 15.7,6.3 h -5.6 c 0.1,-0.3 0.1,-0.6 0,-1 l -6,-18 v 0 h 5.6 c 0.2,0 0.4,0.1 0.5,0.3 l 6.1,18 c 0,0.4 -0.3,0.7 -0.6,0.7 z" clip-rule="evenodd" fill="#ffffff" fill-rule="evenodd"/>
  <text x="50" y="22.6" fill="#ffffff" font-family="'Segoe UI', Arial, sans-serif" font-size="14.5" font-weight="600">Deploy to Azure Gov</text>
</svg>
